HIERARCHY
ROOT Hips
{
  OFFSET 5.84602e-005 68.8428 3.50346
  CHANNELS 6 Xposition Yposition Zposition Zrotation Xrotation Yrotation
  JOINT Spine
  {
    OFFSET 0 8.597 -4.6522
    CHANNELS 3 Zrotation Xrotation Yrotation
    JOINT Spine1
    {
      OFFSET 0 7.8454 0.4098
      CHANNELS 3 Zrotation Xrotation Yrotation
      JOINT Spine2
      {
        OFFSET 0 9.7078 -2.1609
        CHANNELS 3 Zrotation Xrotation Yrotation
        JOINT Neck
        {
          OFFSET 0 21.8761 -0.4549
          CHANNELS 3 Zrotation Xrotation Yrotation
          JOINT Head
          {
            OFFSET 0 12.3537 3.3602
            CHANNELS 3 Zrotation Xrotation Yrotation
            End Site
            {
              OFFSET 0.0001 18.9506 0.5657
            }
          }
        }
        JOINT LeftShoulder
        {
          OFFSET 2.2086 21.1115 7.2329
          CHANNELS 3 Zrotation Xrotation Yrotation
          JOINT LeftArm
          {
            OFFSET 13.1193 3.0282 -4.8998
            CHANNELS 3 Zrotation Xrotation Yrotation
            JOINT LeftForeArm
            {
              OFFSET 27.4081 -0.0973053 -0.2375
              CHANNELS 3 Zrotation Xrotation Yrotation
              JOINT LeftHand
              {
                OFFSET 22.8641 0.0662994 -0.1369
                CHANNELS 3 Zrotation Xrotation Yrotation
                JOINT LeftHandIndex1
                {
                  OFFSET 8.8614 0.775009 2.4612
                  CHANNELS 3 Zrotation Xrotation Yrotation
                  JOINT LeftHandIndex2
                  {
                    OFFSET 3.3146 -0.808304 0.5841
                    CHANNELS 3 Zrotation Xrotation Yrotation
                    JOINT LeftHandIndex3
                    {
                      OFFSET 2.2628 -0.552002 0.3989
                      CHANNELS 3 Zrotation Xrotation Yrotation
                      End Site
                      {
                        OFFSET 1.6102 -0.4807 0.2612
                      }
                    }
                  }
                }
                JOINT LeftHandMiddle1
                {
                  OFFSET 8.9937 0.895004 0.2143
                  CHANNELS 3 Zrotation Xrotation Yrotation
                  JOINT LeftHandMiddle2
                  {
                    OFFSET 4.0984 0.0113983 -0.0242
                    CHANNELS 3 Zrotation Xrotation Yrotation
                    JOINT LeftHandMiddle3
                    {
                      OFFSET 2.2716 0.00689697 -0.0138001
                      CHANNELS 3 Zrotation Xrotation Yrotation
                      End Site
                      {
                        OFFSET 2.0404 -0.1441 0.0027
                      }
                    }
                  }
                }
                JOINT LeftHandRing1
                {
                  OFFSET 8.5234 0.597198 -2.0164
                  CHANNELS 3 Zrotation Xrotation Yrotation
                  JOINT LeftHandRing2
                  {
                    OFFSET 3.7188 -0.188293 -0.2328
                    CHANNELS 3 Zrotation Xrotation Yrotation
                    JOINT LeftHandRing3
                    {
                      OFFSET 2.1191 -0.106598 -0.1332
                      CHANNELS 3 Zrotation Xrotation Yrotation
                      End Site
                      {
                        OFFSET 1.8737 -0.2304 -0.0886
                      }
                    }
                  }
                }
                JOINT LeftHandPinky1
                {
                  OFFSET 7.9094 -0.601089 -3.4825
                  CHANNELS 3 Zrotation Xrotation Yrotation
                  JOINT LeftHandPinky2
                  {
                    OFFSET 2.2874 -0.477005 -0.6314
                    CHANNELS 3 Zrotation Xrotation Yrotation
                    JOINT LeftHandPinky3
                    {
                      OFFSET 1.6774 -0.349396 -0.4633
                      CHANNELS 3 Zrotation Xrotation Yrotation
                      End Site
                      {
                        OFFSET 1.4888 -0.4091 -0.3416
                      }
                    }
                  }
                }
                JOINT LeftHandThumb1
                {
                  OFFSET 1.833 -1.3875 1.3896
                  CHANNELS 3 Zrotation Xrotation Yrotation
                  JOINT LeftHandThumb2
                  {
                    OFFSET 3.4129 -1.121 2.5732
                    CHANNELS 3 Zrotation Xrotation Yrotation
                    JOINT LeftHandThumb3
                    {
                      OFFSET 2.2474 -0.804199 1.6192
                      CHANNELS 3 Zrotation Xrotation Yrotation
                      End Site
                      {
                        OFFSET 1.6527 -0.5689 1.1317
                      }
                    }
                  }
                }
              }
            }
          }
        }
        JOINT RightShoulder
        {
          OFFSET -2.2086 21.1115 7.2329
          CHANNELS 3 Zrotation Xrotation Yrotation
          JOINT RightArm
          {
            OFFSET -13.1216 3.0287 -4.9007
            CHANNELS 3 Zrotation Xrotation Yrotation
            JOINT RightForeArm
            {
              OFFSET -27.4081 -0.0973053 -0.2375
              CHANNELS 3 Zrotation Xrotation Yrotation
              JOINT RightHand
              {
                OFFSET -22.8641 0.0664063 -0.1369
                CHANNELS 3 Zrotation Xrotation Yrotation
                JOINT RightHandIndex1
                {
                  OFFSET -8.8614 0.774994 2.4612
                  CHANNELS 3 Zrotation Xrotation Yrotation
                  JOINT RightHandIndex2
                  {
                    OFFSET -3.3146 -0.808304 0.5841
                    CHANNELS 3 Zrotation Xrotation Yrotation
                    JOINT RightHandIndex3
                    {
                      OFFSET -2.2628 -0.552002 0.3989
                      CHANNELS 3 Zrotation Xrotation Yrotation
                      End Site
                      {
                        OFFSET -1.6102 -0.4807 0.2612
                      }
                    }
                  }
                }
                JOINT RightHandMiddle1
                {
                  OFFSET -8.9937 0.894989 0.2143
                  CHANNELS 3 Zrotation Xrotation Yrotation
                  JOINT RightHandMiddle2
                  {
                    OFFSET -4.0984 0.0113983 -0.0242
                    CHANNELS 3 Zrotation Xrotation Yrotation
                    JOINT RightHandMiddle3
                    {
                      OFFSET -2.2716 0.00691223 -0.0138001
                      CHANNELS 3 Zrotation Xrotation Yrotation
                      End Site
                      {
                        OFFSET -2.0404 -0.1441 0.0027
                      }
                    }
                  }
                }
                JOINT RightHandRing1
                {
                  OFFSET -8.5234 0.597198 -2.0164
                  CHANNELS 3 Zrotation Xrotation Yrotation
                  JOINT RightHandRing2
                  {
                    OFFSET -3.7188 -0.188309 -0.2328
                    CHANNELS 3 Zrotation Xrotation Yrotation
                    JOINT RightHandRing3
                    {
                      OFFSET -2.1191 -0.106598 -0.1332
                      CHANNELS 3 Zrotation Xrotation Yrotation
                      End Site
                      {
                        OFFSET -1.8737 -0.2304 -0.0886
                      }
                    }
                  }
                }
                JOINT RightHandPinky1
                {
                  OFFSET -7.9094 -0.601105 -3.4825
                  CHANNELS 3 Zrotation Xrotation Yrotation
                  JOINT RightHandPinky2
                  {
                    OFFSET -2.2874 -0.477005 -0.6314
                    CHANNELS 3 Zrotation Xrotation Yrotation
                    JOINT RightHandPinky3
                    {
                      OFFSET -1.6774 -0.349396 -0.4633
                      CHANNELS 3 Zrotation Xrotation Yrotation
                      End Site
                      {
                        OFFSET -1.4888 -0.4091 -0.3416
                      }
                    }
                  }
                }
                JOINT RightHandThumb1
                {
                  OFFSET -1.833 -1.38751 1.3896
                  CHANNELS 3 Zrotation Xrotation Yrotation
                  JOINT RightHandThumb2
                  {
                    OFFSET -3.41299 -1.12099 2.5732
                    CHANNELS 3 Zrotation Xrotation Yrotation
                    JOINT RightHandThumb3
                    {
                      OFFSET -2.24741 -0.804108 1.6192
                      CHANNELS 3 Zrotation Xrotation Yrotation
                      End Site
                      {
                        OFFSET -1.6527 -0.5689 1.1317
                      }
                    }
                  }
                }
              }
            }
          }
        }
      }
    }
  }
  JOINT RightUpLeg
  {
    OFFSET -9.1966 3.8861 -0.7581
    CHANNELS 3 Zrotation Xrotation Yrotation
    JOINT RightLeg
    {
      OFFSET -0.7359 -41.0265 0
      CHANNELS 3 Zrotation Xrotation Yrotation
      JOINT RightFoot
      {
        OFFSET 0 -40.2855 0
        CHANNELS 3 Zrotation Xrotation Yrotation
        JOINT RightToeBase
        {
          OFFSET 0 -5.6122 11.7359
          CHANNELS 3 Zrotation Xrotation Yrotation
          End Site
          {
            OFFSET 0 0 7.8731
          }
        }
      }
    }
  }
  JOINT LeftUpLeg
  {
    OFFSET 9.1965 3.8864 -0.7581
    CHANNELS 3 Zrotation Xrotation Yrotation
    JOINT LeftLeg
    {
      OFFSET 0.7359 -41.0268 0
      CHANNELS 3 Zrotation Xrotation Yrotation
      JOINT LeftFoot
      {
        OFFSET 0 -40.2855 0
        CHANNELS 3 Zrotation Xrotation Yrotation
        JOINT LeftToeBase
        {
          OFFSET 0 -5.6122 11.7359
          CHANNELS 3 Zrotation Xrotation Yrotation
          End Site
          {
            OFFSET 0 0 7.8731
          }
        }
      }
    }
  }
}
MOTION
Frames:	5
Frame Time:	0.0333333
-31.7205 5.36263 41.3969 34.6795 -83.9597 37.5473 -1.37486 9.35928 -0.433891 -2.73269 18.7262 -0.649746 -2.73269 18.7262 -0.649746 -0.0533317 6.30351 0.172807 0.180808 16.4162 13.5875 14.267 -1.37192 40.3139 -40.5853 11.5267 -11.9404 -49.5555 23.9411 -15.0471 4.88336 49.9546 3.17166 2.05693e-006 1.3646e-006 1.49073e-006 -2.63015e-006 -4.36907e-007 -1.05613e-006 2.05693e-006 1.3646e-006 1.49073e-006 2.05693e-006 1.3646e-006 1.49073e-006 -0.014584 -9.12163e-005 6.02797e-006 2.05889e-006 1.36443e-006 1.4909e-006 2.05693e-006 1.3646e-006 1.49073e-006 -0.0187566 -0.00117513 5.63369e-005 -2.68479e-006 -3.52561e-007 -1.01664e-006 2.05693e-006 1.3646e-006 1.49073e-006 -0.01227 -0.00324729 0.000680603 -3.12657e-007 5.05993e-007 2.37118e-007 2.05693e-006 1.3646e-006 1.49073e-006 -2.63015e-006 -4.36907e-007 -1.05613e-006 2.05693e-006 1.3646e-006 1.49073e-006 11.1786 -5.96728 3.0072 59.7868 -15.1259 -5.01573 4.69959 16.1107 65.9741 7.78919 -0.0246626 -6.37582 -1.37935e-031 2.48481e-015 3.18055e-015 1.59028e-015 2.48481e-015 3.18055e-015 1.19271e-015 2.78299e-015 1.59028e-015 -1.37935e-031 2.48481e-015 3.18055e-015 0.0149857 -0.000103445 2.09474e-006 3.97569e-016 8.94531e-016 -1.59028e-015 -1.37935e-031 2.48481e-015 3.18055e-015 0.0189721 -0.00118997 -5.91947e-005 -1.98785e-015 -1.26228e-014 -0 -1.37935e-031 2.48481e-015 3.18055e-015 0.0122596 -0.00324465 -0.000677023 -3.97569e-016 3.25013e-014 1.59028e-015 -1.37935e-031 2.48481e-015 3.18055e-015 1.59028e-015 2.48481e-015 3.18055e-015 1.19271e-015 2.78299e-015 1.59028e-015 -34.4578 -37.3257 -56.6822 -169.95 60.9128 178.085 -8.84949 -2.08516 -20.624 1.62408e-006 2.25689e-007 -2.18444e-007 6.18254 -22.4515 18.0163 25.7251 54.7467 -28.448 2.94327 8.64373 -1.28947 2.77991e-007 1.52991e-005 1.17369e-006 
-31.7207 5.36265 41.3969 34.6795 -83.9597 37.5473 -1.37486 9.35928 -0.433891 -2.73269 18.7262 -0.649746 -2.73269 18.7262 -0.649746 -0.0533317 6.30351 0.172807 0.24844 16.3527 13.6633 14.267 -1.37192 40.3139 -40.5853 11.5267 -11.9404 -49.5555 23.9411 -15.0471 4.88336 49.9546 3.17166 2.05693e-006 1.3646e-006 1.49073e-006 -2.63015e-006 -4.36907e-007 -1.05613e-006 2.05693e-006 1.3646e-006 1.49073e-006 2.05693e-006 1.3646e-006 1.49073e-006 -0.014584 -9.12163e-005 6.02797e-006 2.05889e-006 1.36443e-006 1.4909e-006 2.05693e-006 1.3646e-006 1.49073e-006 -0.0187566 -0.00117513 5.63369e-005 -2.68479e-006 -3.52561e-007 -1.01664e-006 2.05693e-006 1.3646e-006 1.49073e-006 -0.01227 -0.00324729 0.000680603 -3.12657e-007 5.05993e-007 2.37118e-007 2.05693e-006 1.3646e-006 1.49073e-006 -2.63015e-006 -4.36907e-007 -1.05613e-006 2.05693e-006 1.3646e-006 1.49073e-006 11.1786 -5.96728 3.0072 59.8099 -15.1292 -4.92965 4.73744 16.1986 65.9696 7.85261 -0.0250356 -6.37801 -1.98785e-015 -4.37326e-015 -1.59028e-015 -1.98785e-015 -4.47266e-015 -1.59028e-015 -3.18055e-015 -7.45443e-015 -4.77083e-015 -1.98785e-015 -4.37326e-015 -1.59028e-015 0.0149694 -8.94934e-005 -1.32047e-006 0 2.48481e-015 -0 -1.98785e-015 -4.37326e-015 -1.59028e-015 0.0190392 -0.00119556 -6.33546e-005 -1.59028e-015 -3.8763e-015 -1.59028e-015 -1.98785e-015 -4.37326e-015 -1.59028e-015 0.0122277 -0.00323438 -0.000680423 -7.95139e-016 -4.37326e-015 3.18055e-015 -1.98785e-015 -4.37326e-015 -1.59028e-015 -1.98785e-015 -4.47266e-015 -1.59028e-015 -3.18055e-015 -7.45443e-015 -4.77083e-015 -34.5115 -37.2421 -56.8018 -169.95 60.9122 178.086 -8.84837 -2.08359 -20.6233 2.0593e-006 1.07657e-006 3.02955e-006 6.18258 -22.4522 18.0162 25.7258 54.7473 -28.4485 2.94314 8.64372 -1.2895 5.86588e-007 1.5214e-005 1.58488e-007 
-31.7208 5.36265 41.397 34.6795 -83.9597 37.5473 -1.37486 9.35928 -0.433892 -2.73269 18.7262 -0.649746 -2.73269 18.7262 -0.649746 -0.0532771 6.30369 0.172788 0.316153 16.2893 13.7392 14.267 -1.37192 40.3139 -40.5853 11.5267 -11.9404 -49.5555 23.9411 -15.0472 4.88336 49.9546 3.17164 -3.12667e-007 5.06016e-007 2.37055e-007 -1.04222e-007 1.68672e-007 7.90185e-008 -3.12667e-007 5.06016e-007 2.37055e-007 -3.12667e-007 5.06016e-007 2.37055e-007 -0.014604 -8.55672e-005 1.17214e-006 -2.68423e-006 -3.52452e-007 -1.01666e-006 -3.12667e-007 5.06016e-007 2.37055e-007 -0.0187594 -0.00117619 5.41751e-005 -3.12664e-007 5.05978e-007 2.37141e-007 -3.12667e-007 5.06016e-007 2.37055e-007 -0.0122579 -0.00324478 0.000681049 -2.68394e-006 -3.52881e-007 -1.01649e-006 -3.12667e-007 5.06016e-007 2.37055e-007 -1.04222e-007 1.68672e-007 7.90185e-008 -3.12667e-007 5.06016e-007 2.37055e-007 11.1786 -5.96728 3.0072 59.8329 -15.1324 -4.84356 4.77535 16.2866 65.965 7.91602 -0.0253899 -6.38021 2.75869e-032 9.93923e-016 -1.59028e-015 -3.97569e-016 3.97569e-015 -1.59028e-015 0 3.97569e-015 -0 2.75869e-032 9.93923e-016 -1.59028e-015 0.0149777 -9.63092e-005 4.9327e-006 -1.19271e-015 -6.95746e-016 1.59028e-015 2.75869e-032 9.93923e-016 -1.59028e-015 0.019005 -0.00119219 -5.81571e-005 -7.95139e-016 9.34288e-015 -0 2.75869e-032 9.93923e-016 -1.59028e-015 0.0122722 -0.00324701 -0.000675417 0 8.94531e-016 -0 2.75869e-032 9.93923e-016 -1.59028e-015 -3.97569e-016 3.97569e-015 -1.59028e-015 0 3.97569e-015 -0 -34.584 -37.1441 -56.9522 -169.95 60.9116 178.087 -8.84698 -2.08176 -20.6226 -6.15295e-008 1.48442e-006 -6.06879e-007 6.18281 -22.4516 18.0163 25.7251 54.7468 -28.4481 2.94303 8.64375 -1.28953 4.76611e-007 4.75253e-006 1.90039e-006 
-31.721 5.36269 41.397 34.6795 -83.9597 37.5473 -1.37486 9.35928 -0.433894 -2.73269 18.7262 -0.649746 -2.73269 18.7262 -0.649746 -0.0533587 6.30346 0.172823 0.383951 16.226 13.8151 14.267 -1.37192 40.3139 -40.5853 11.5267 -11.9404 -49.5555 23.9411 -15.0472 4.88336 49.9546 3.17165 -3.12666e-007 5.06016e-007 2.37055e-007 2.60556e-008 -4.2168e-008 -1.97546e-008 -3.12666e-007 5.06016e-007 2.37055e-007 -3.12666e-007 5.06016e-007 2.37055e-007 -0.0146243 -8.99549e-005 8.85639e-006 -3.12667e-007 5.05986e-007 2.3712e-007 -3.12666e-007 5.06016e-007 2.37055e-007 -0.0187302 -0.00117344 5.89538e-005 -3.12664e-007 5.05978e-007 2.37141e-007 -3.12666e-007 5.06016e-007 2.37055e-007 -0.0122889 -0.00325343 0.000685 2.05863e-006 1.36487e-006 1.49072e-006 -3.12666e-007 5.06016e-007 2.37055e-007 2.60556e-008 -4.2168e-008 -1.97546e-008 -3.12666e-007 5.06016e-007 2.37055e-007 11.1786 -5.96728 3.0072 59.8559 -15.1356 -4.75747 4.81324 16.3745 65.9604 7.97945 -0.0257628 -6.3824 3.97569e-016 2.18663e-015 3.18055e-015 3.86217e-032 -6.95746e-016 3.18055e-015 7.95139e-016 2.48481e-015 -0 3.97569e-016 2.18663e-015 3.18055e-015 0.0150048 -8.88124e-005 -1.19559e-006 0 2.92213e-014 -0 3.97569e-016 2.18663e-015 3.18055e-015 0.0190197 -0.00118866 -6.51504e-005 7.95139e-016 8.94531e-016 -0 3.97569e-016 2.18663e-015 3.18055e-015 0.0122231 -0.0032353 -0.000678014 1.21382e-031 4.37326e-015 -1.59028e-015 3.97569e-016 2.18663e-015 3.18055e-015 3.86217e-032 -6.95746e-016 3.18055e-015 7.95139e-016 2.48481e-015 -0 -34.6175 -37.0752 -57.04 -169.951 60.911 178.088 -8.8461 -2.0805 -20.6221 2.78299e-015 3.18055e-015 -3.18055e-015 6.18286 -22.4522 18.0162 25.7258 54.7474 -28.4486 2.9429 8.6437 -1.28955 -6.38339e-007 3.30362e-006 2.91334e-007 
-31.7211 5.3629 41.3971 34.6795 -83.9597 37.5473 -1.37486 9.35928 -0.433894 -2.73269 18.7262 -0.649746 -2.73269 18.7262 -0.649746 -0.0533576 6.30344 0.172821 0.451823 16.1628 13.8911 14.267 -1.37192 40.3139 -40.5853 11.5267 -11.9404 -49.5555 23.9411 -15.0472 4.88336 49.9546 3.17165 -3.12666e-007 5.06016e-007 2.37055e-007 2.60556e-008 -4.2168e-008 -1.97546e-008 -3.12666e-007 5.06016e-007 2.37055e-007 -3.12666e-007 5.06016e-007 2.37055e-007 -0.0146243 -8.99549e-005 8.85639e-006 -3.12667e-007 5.05986e-007 2.3712e-007 -3.12666e-007 5.06016e-007 2.37055e-007 -0.0187302 -0.00117344 5.89538e-005 -3.12664e-007 5.05978e-007 2.37141e-007 -3.12666e-007 5.06016e-007 2.37055e-007 -0.0122625 -0.00324484 0.000673566 -3.12657e-007 5.05993e-007 2.37118e-007 -3.12666e-007 5.06016e-007 2.37055e-007 2.60556e-008 -4.2168e-008 -1.97546e-008 -3.12666e-007 5.06016e-007 2.37055e-007 11.1786 -5.96728 3.0072 59.879 -15.1388 -4.67135 4.85117 16.4625 65.9557 8.0429 -0.0261249 -6.38458 -3.97569e-016 -3.97569e-016 -1.59028e-015 1.37935e-032 -4.96962e-016 1.59028e-015 1.10348e-032 -3.97569e-016 1.59028e-015 -3.97569e-016 -3.97569e-016 -1.59028e-015 0.0150196 -9.22617e-005 2.19141e-007 -0 -1.11319e-014 -0 -3.97569e-016 -3.97569e-016 -1.59028e-015 0.01899 -0.00119046 -5.73849e-005 -7.95139e-016 -4.87022e-015 -3.18055e-015 -3.97569e-016 -3.97569e-016 -1.59028e-015 0.0122091 -0.00323139 -0.000676853 3.5863e-031 6.4605e-015 -3.18055e-015 -3.97569e-016 -3.97569e-016 -1.59028e-015 1.37935e-032 -4.96962e-016 1.59028e-015 1.10348e-032 -3.97569e-016 1.59028e-015 -34.5359 -37.0932 -56.9408 -169.95 60.9108 178.087 -8.84669 -2.08082 -20.6225 8.74653e-015 0 -1.59028e-015 6.18286 -22.4526 18.0162 25.7263 54.7478 -28.449 2.94285 8.64357 -1.28956 2.77145e-007 4.77497e-006 1.97284e-006 
